# xmcd
#
# Track frame offsets: 
#        150
#        19595
#        31678
#        46098
#        65413
#        79325
#        100545
#        122445
#        141720
#        156323
#        174465
#        187765
#        202060
#
# Disc length: 2978 seconds
#
# Revision: 6
# Processed by: cddbd v1.5.2PL0 Copyright (c) Steve Scherf et al.
# Submitted via: ExactAudioCopyFreeDBPlugin 1.0
#
DISCID=a40ba00d
DTITLE=Marcia Ball, Irma Thomas, and Tracy Nelson - Sing It!
DYEAR=1998
DGENRE=Rhythm and Blues
TTITLE0=Sing It
TTITLE1=I Want to Do Everything for You
TTITLE2=In Tears
TTITLE3=Love Maker
TTITLE4=Yield Not to Temptation
TTITLE5=Heart to Heart
TTITLE6=People Will Be People
TTITLE7=Please No More
TTITLE8=If I Know You
TTITLE9=Woman on the Move
TTITLE10=He's Mine
TTITLE11=Shouldn't I Love Him
TTITLE12=You Don't Know Nothin' About Love
EXTD=YEAR: 1998
EXTT0=
EXTT1=
EXTT2=
EXTT3=
EXTT4=
EXTT5=
EXTT6=
EXTT7=
EXTT8=
EXTT9=
EXTT10=
EXTT11=
EXTT12=
PLAYORDER=
